# xmcd
#
# Track frame offsets: 
#        150
#        23967
#        45773
#        68922
#        93957
#        112784
#        136768
#        159325
#        180862
#        198655
#        220451
#
# Disc length: 3168 seconds
#
# Revision: 0
# Processed by: cddbd v1.5.2PL0 Copyright (c) Steve Scherf et al.
# Submitted via: ExactAudioCopy v1.2
#
DISCID=850c5e0b
DTITLE=Greg Koch and the Tone Controls - Vivid Gristle
DYEAR=2014
DGENRE=Blues
TTITLE0=Thems the Breaks
TTITLE1=Rex Charmer
TTITLE2=I'm Tradin' You In
TTITLE3=Headin' West
TTITLE4=Okie
TTITLE5=Big Fish
TTITLE6=Don't Think Twice
TTITLE7=I Can't Win For Losin'
TTITLE8=Words
TTITLE9=Flyover Country
TTITLE10=Vodie Shuffle
EXTD=
EXTT0=
EXTT1=
EXTT2=
EXTT3=
EXTT4=
EXTT5=
EXTT6=
EXTT7=
EXTT8=
EXTT9=
EXTT10=
PLAYORDER=
